<?xml version="1.0" ?><!DOCTYPE svg  PUBLIC '-//W3C//DTD SVG 1.1//EN'  'http://www.w3.org/Graphics/SVG/1.1/DTD/svg11.dtd'><svg enable-background="new 0 0 75 75" height="75px" id="Layer_1" version="1.1" viewBox="0 0 75 75" width="75px" xml:space="preserve" xmlns="http://www.w3.org/2000/svg" xmlns:xlink="http://www.w3.org/1999/xlink"><g><path d="M57.689,30.562v19.77c0,9.811-7.957,17.764-17.764,17.764h-4.85c-9.809,0-17.766-7.953-17.766-17.764   v-19.77H57.689z" fill="#E8B6AC"/><path d="M57.689,27.688v19.768c0,9.811-7.957,17.764-17.764,17.764h-4.85c-9.809,0-17.766-7.953-17.766-17.764   V27.688H57.689z" fill="#F2D1C9"/><path d="M17.311,44.39c0.66,0.271,1.379,0.426,2.135,0.426h22.357c2.289,0,4.25-1.381,5.115-3.352   c0.861,1.971,2.824,3.352,5.115,3.352h5.656V33.46H17.311V44.39z" fill="#E8B6AC"/><path d="M17.311,41.491c0.66,0.273,1.379,0.426,2.135,0.426h22.357c2.289,0,4.25-1.379,5.115-3.35   c0.861,1.971,2.824,3.35,5.115,3.35h5.656V30.562H17.311V41.491z" fill="#EAB818"/><path d="M37.498,29.181c11.104,0,20.102,3.006,20.102,6.711v4.393c0-3.705-8.998-6.711-20.102-6.711   c-11.1,0-20.1,3.006-20.1,6.711v-4.393C17.398,32.187,26.398,29.181,37.498,29.181z" fill="#ED9015"/><g><g><path d="M37.465,24.558c11.662,0,21.113,3.156,21.113,7.049v6.676h-0.029c-0.299-3.805-9.611-6.861-21.084-6.861     s-20.787,3.057-21.088,6.861H16.35v-6.676C16.35,27.714,25.803,24.558,37.465,24.558z" fill="#F7F5DC"/><path d="M37.465,26.808c11.662,0,21.113,3.156,21.113,7.047v4.613c0-3.891-9.451-7.049-21.113-7.049     S16.35,34.577,16.35,38.468v-4.613C16.35,29.964,25.803,26.808,37.465,26.808z" fill="#EAE8C3"/><g><path d="M37.465,24.558c-8.586,0-15.965,1.717-19.266,4.172c0.455-1.643,0.703-3.348,0.703-5.117      c0-3.293-0.85-6.395-2.314-9.17c4.211-4.602,10.527-7.537,17.596-7.537c12.68,0,22.957,9.42,22.957,21.043      c0,0.352-0.041,0.709-0.057,1.066C53.982,26.405,46.379,24.558,37.465,24.558z" fill="#1BC1A9"/></g><path d="M34.184,10.987c11.506,0,21.031,7.754,22.697,17.873c-3.215-2.525-10.676-4.303-19.416-4.303     c-8.039,0-15.018,1.506-18.584,3.713c0.006-0.193,0.021-0.383,0.021-0.578c0-0.695-0.049-1.381-0.123-2.057     c0.074-0.664,0.123-1.34,0.123-2.023c0-2.207-0.391-4.326-1.082-6.32C21.984,13.407,27.771,10.987,34.184,10.987z" fill="#0CAFAF"/><path d="M51.047,26.224c-3.666-1.037-8.395-1.666-13.582-1.666c-8.039,0-15.018,1.506-18.584,3.713     c0.006-0.193,0.021-0.383,0.021-0.578c0-0.695-0.049-1.381-0.123-2.057c0.029-0.262,0.051-0.525,0.07-0.789     c4.064-3.355,9.434-5.41,15.334-5.41C40.859,19.437,46.852,22.058,51.047,26.224z" fill="#109BAD"/><path d="M17.336,17.065c0,2.693-2.191,4.885-4.891,4.885s-4.887-2.191-4.887-4.885     c0-2.705,2.188-4.896,4.887-4.896S17.336,14.36,17.336,17.065z" fill="#F7F5DC"/><path d="M16.516,14.354c0.518,0.775,0.82,1.705,0.82,2.711c0,1.426-0.617,2.707-1.596,3.602     c-0.516-0.775-0.818-1.703-0.818-2.703C14.922,16.53,15.537,15.249,16.516,14.354z" fill="#EAE8C3"/></g></g><g><g><circle cx="48.398" cy="47.272" fill="#1573BA" r="1.477"/></g><g><circle cx="26.602" cy="47.272" fill="#1573BA" r="1.477"/></g></g><g><g><path d="M66.154,27.755h2.582v10.23c0,4.678-3.795,8.469-8.469,8.469h-2.578V36.226     C57.689,31.548,61.479,27.755,66.154,27.755z" fill="#FFE6E1"/><path d="M66.154,30.935h2.582v7.051c0,4.678-3.795,8.469-8.469,8.469h-2.578v-7.051     C57.689,34.726,61.479,30.935,66.154,30.935z" fill="#F2D1C9"/></g><g><path d="M8.844,27.755h-2.58v10.23c0,4.678,3.793,8.469,8.467,8.469h2.58V36.226     C17.311,31.548,13.52,27.755,8.844,27.755z" fill="#FFE6E1"/><path d="M17.311,39.403v7.051h-2.58c-4.674,0-8.467-3.791-8.467-8.469v-7.051h2.58     C13.52,30.935,17.311,34.726,17.311,39.403z" fill="#F2D1C9"/></g></g><path d="M47.391,52.745c0,5.463-4.428,9.891-9.891,9.891c-5.461,0-9.893-4.428-9.893-9.891H47.391z" fill="#AA1F4D"/><path d="M43.621,60.505c-1.686,1.33-3.807,2.131-6.121,2.131c-2.312,0-4.436-0.801-6.119-2.131   c0.893-2.523,3.291-4.332,6.119-4.332C40.33,56.173,42.729,57.981,43.621,60.505z" fill="#BC2A54"/></g></svg>