<?xml version="1.0" ?><svg height="512" preserveAspectRatio="xMidYMid" viewBox="0 0 512 512" width="512" xmlns="http://www.w3.org/2000/svg" xmlns:xlink="http://www.w3.org/1999/xlink"><defs><style>
      .cls-1 {
        fill: #db9834;
      }

      .cls-2 {
        fill: #000;
        opacity: 0.3;
      }

      .cls-2, .cls-3 {
        fill-rule: evenodd;
      }

      .cls-3 {
        fill: #fff;
      }
    </style></defs><g><circle class="cls-1" cx="256" cy="256" r="256"/><path class="cls-2" d="M160.332,130.012 L1.748,225.927 C0.593,235.791 0.000,245.826 0.000,256.000 C0.000,397.385 114.615,512.000 256.000,512.000 C257.829,512.000 259.654,511.981 261.475,511.943 L380.209,325.410 L318.000,296.000 L380.000,219.000 L373.000,174.000 L326.000,172.000 L183.000,309.000 L180.000,303.000 L204.000,280.000 L179.000,282.000 L247.000,220.000 L233.000,134.000 L160.332,130.012 Z"/><path class="cls-3" d="M366.648,223.963 L335.329,223.374 C335.329,223.374 322.611,222.505 322.897,208.275 C323.075,199.411 323.299,189.387 323.471,180.809 C323.739,167.440 337.965,166.348 337.965,166.348 C337.965,166.348 358.276,166.348 367.401,166.348 C382.428,166.348 383.000,180.060 383.000,180.060 C383.000,180.060 383.000,199.722 383.000,208.643 C383.000,224.429 366.648,223.963 366.648,223.963 ZM361.280,194.775 L365.391,194.775 L365.905,189.161 L362.307,189.161 L363.849,179.977 L358.196,179.977 L356.654,189.161 L352.028,189.161 L353.570,179.977 L348.431,179.977 L346.375,189.161 L340.207,189.161 L340.207,194.264 L345.861,194.775 L344.319,201.408 L339.693,201.408 L339.693,206.510 L343.291,206.510 L341.749,215.185 L346.889,215.185 L348.431,206.510 L353.056,206.510 L351.514,215.185 L356.654,215.185 L358.710,206.510 L365.391,206.510 L365.905,201.408 L360.252,201.408 L361.280,194.775 ZM349.459,201.408 L350.487,194.775 L355.626,194.775 L354.598,201.408 L349.459,201.408 ZM365.905,259.479 L380.720,326.488 L361.347,319.674 C361.347,319.674 323.864,391.922 248.522,383.276 C173.181,374.629 151.653,300.366 151.653,300.366 L130.000,308.316 L143.676,244.715 L205.216,279.923 L182.423,287.873 C182.423,287.873 196.465,344.423 250.802,350.339 C305.139,356.255 331.716,307.181 331.716,307.181 L310.063,296.959 L365.905,259.479 ZM230.032,226.542 C212.058,226.542 170.028,226.542 170.028,226.542 C170.028,226.542 147.094,225.758 147.094,202.250 C147.094,180.446 147.094,151.853 147.094,151.853 C147.094,151.853 147.649,127.738 172.298,128.002 C195.474,128.251 226.262,128.581 226.262,128.581 C226.262,128.581 253.084,129.129 253.371,153.734 C253.618,174.891 253.933,201.872 253.933,201.872 C253.933,201.872 254.422,226.542 230.032,226.542 ZM221.171,172.026 L230.288,172.026 L231.428,159.533 L223.450,159.533 L226.869,139.090 L214.333,139.090 L210.914,159.533 L200.657,159.533 L204.076,139.090 L192.680,139.090 L188.122,159.533 L174.446,159.533 L174.446,170.891 L186.982,172.026 L183.563,186.791 L173.306,186.791 L173.306,198.149 L181.283,198.149 L177.865,217.456 L189.261,217.456 L192.680,198.149 L202.937,198.149 L199.518,217.456 L210.914,217.456 L215.473,198.149 L230.288,198.149 L231.428,186.791 L218.892,186.791 L221.171,172.026 ZM194.959,186.791 L197.239,172.026 L208.635,172.026 L206.356,186.791 L194.959,186.791 Z"/></g></svg>